# xmcd
#
# Track frame offsets:
# 150
# 17910
# 35243
# 52581
# 66724
# 82626
# 96348
# 109835
# 124454
# 141138
# 154119
# 166377
# 185949
# 199534
# 215552
# 229262
# 245131
# 260348
# 274336
# 291541
#
# Disc length: 4111 seconds
#
#
# Revision: 1
# Processed by: cddbd v1.5.2PL0 Copyright (c) Steve Scherf et al.
# Submitted via: FreeRIP 2.943 
#
DISCID=3c100d14
DTITLE=diversos - AS 20 MAIS RAÍZES SERTANEJAS
DYEAR=1900
DGENRE=Sertanejo Raiz
TTITLE0=FRANGUINHO NA PANELA - Lourenço e Lourival
TTITLE1=COURO DE BOI - Palmeira e Biá
TTITLE2=AMOR DISTANTE - Os filhos de Goiás
TTITLE3=VOU TOMAR UM PINGÃO - Ed Moreno e Toninho
TTITLE4=RELÓGIO QUEBRADO - Nestor e Nestorzinho
TTITLE5=A ENXADA E A CANETA - Zico e Zeca
TTITLE6=O PODER DO CRIADOR - Goiano e Paranaense
TTITLE7=ONDE ESTÃO OS MEUS PASSOS - Barrerito
TTITLE8=MAMÃE AMOROSA -  Abel e Caim
TTITLE9=MÚSICA DA SAUDADE - Gilberto e Gilmar
TTITLE10=CANARINHO DO PEITO AMARELO - Tibagi e Miltinho
TTITLE11=GOLPE DE MESTRE - Tião Carreiro e Pardinho
TTITLE12=DE LONGE TAMBÉM SE AMA - Milionário e José Rico
TTITLE13=MEU REINO ENCANTADO - Daniel e Zé Camilo
TTITLE14=VESTIDO DE SEDA - Teodoro e Sampaio
TTITLE15=O MENINO DA PORTEIRA - Luizinho, Limeira e Zézinho
TTITLE16=BOI SOBERANO - Zé Carreiro e Carreirinho
TTITLE17=MINHA SERENATA - João Mineiro e Marciano
TTITLE18=NELORE VALENTE - Gino Franco e Mouraí
TTITLE19=MÁGOA DE BOIADEIRO - Pedro Bento e Zé da Estrada
EXTD=AA0105001 SOM LIVRE
EXTT0=Lourenço e Lourival
EXTT1=Palmeira e Biá
EXTT2=Os filhos de Goiás
EXTT3=Ed Moreno e Toninho
EXTT4=Nestor e Nestorzinho
EXTT5=Zico e Zeca
EXTT6=Goiano e Paranaense
EXTT7=Barrerito
EXTT8=Abel e Caim
EXTT9=Gilberto e Gilmar
EXTT10=Tibagi e Miltinho
EXTT11=Tião Carreiro e Pardinho
EXTT12=Milionário e José Rico
EXTT13=Daniel e Zé Camilo
EXTT14=Teodoro e Sampaio
EXTT15=Luizinho, Limeira e Zézinho
EXTT16=Zé Carreiro e Carreirinho
EXTT17=João Mineiro e Marciano
EXTT18=Gino Franco e Mouraí
EXTT19=Pedro Bento e Zé da Estrada
PLAYORDER=
